<svg width="120" height="27" xmlns="http://www.w3.org/2000/svg" stroke="#4A6CF7" xml:space="preserve" version="1.1"
     fill="#4A6CF7">

 <g>
  <title>Layer 1</title>
     <g stroke-width="0" id="SVGRepo_bgCarrier"/>
     <g stroke-linejoin="round" stroke-linecap="round" id="SVGRepo_tracerCarrier"/>
     <g stroke="null" id="SVGRepo_iconCarrier">
   <g stroke="null" id="diary_book-book-heart-love-valentine">
    <path stroke="null" id="svg_1"
          d="m32.91681,6.78736l-0.60935,0l0,-3.42582c0,-1.14458 -1.03764,-1.99706 -2.14102,-1.80123l-12.48339,
          2.1711l-12.47843,-2.20028c-1.11297,-0.19956 -2.14582,0.65992 -2.14582,1.80009l0,3.45614l-0.60935,0c-0.67302,
          0 -1.21869,0.54559 -1.21869,1.21869l0,14.01498c0,0.67302 0.54567,1.21869 1.21869,1.21869l9.95863,0c1.03604,
          0 1.51423,0.50462 2.12373,1.11411c0.45709,0.45709 1.0771,0.71393 1.72346,0.71393c1.0333,0 1.82225,0 2.85555,
          0c0.64644,0 1.26638,-0.25684 1.72346,-0.71393c0.60935,-0.60935 1.08677,-1.11411 2.12373,-1.11411l9.95878,
          0c0.67302,0 1.21869,-0.54567 1.21869,-1.21869l0,-14.01498c0,-0.6731 -0.54567,-1.21869 -1.21869,
          -1.21869zm-2.54151,-4.02618c0.36165,-0.06459 0.71347,0.21228 0.71347,0.60044l0,15.16581c0,0.29637 -0.21182,
          0.54864 -0.5034,0.60044l-12.29289,2.16722l0,-16.43271l12.08282,-2.10118zm-26.09779,0.57004c0,-0.37719
          0.33864,-0.66518 0.7153,-0.60044l12.08099,2.13035l0,16.43393l-12.29289,-2.16722c-0.29157,-0.05179 -0.5034,
          -0.30406 -0.5034,-0.60044l0,-15.1962zm15.85254,11.05218c-0.05888,-0.33148 0.16247,-0.64743 0.49388,
          -0.70578l7.92151,-1.39662c0.33027,-0.06246 0.64743,0.16247 0.70578,0.49388c0.05888,0.33148 -0.16247,0.64743
          -0.49388,0.70578l-7.92151,1.39662c-0.03572,0.00655 -0.07145,0.00952 -0.10648,0.00952c-0.29043,0 -0.5475,
          -0.20771 -0.59929,-0.5034zm0,-3.04673c-0.05888,-0.33148 0.16247,-0.64743 0.49388,-0.70578l7.92151,
          -1.39662c0.33027,-0.06132 0.64743,0.16247 0.70578,0.49388c0.05888,0.33148 -0.16247,0.64743 -0.49388,
          0.70578l-7.92151,1.39662c-0.03572,0.00655 -0.07145,0.00952 -0.10648,0.00952c-0.29043,0 -0.5475,-0.20771
          -0.59929,-0.5034zm0,-3.04673c-0.05888,-0.33148 0.16247,-0.64743 0.49388,-0.70578l7.92151,-1.39662c0.33027,
          -0.06246 0.64743,0.16247 0.70578,0.49388c0.05888,0.33148 -0.16247,0.64743 -0.49388,0.70578l-7.92151,
          1.39662c-0.03572,0.00655 -0.07145,0.00952 -0.10648,0.00952c-0.29043,0 -0.5475,-0.20771 -0.59929,-0.5034zm0,
          9.1402c-0.05888,-0.33148 0.16247,-0.64743 0.49388,-0.70578l7.92151,-1.39662c0.33027,-0.06132 0.64743,
          0.16247 0.70578,0.49388c0.05888,0.33148 -0.16247,0.64743 -0.49388,0.70578l-7.92151,1.39662c-0.03572,
          0.00655 -0.07145,0.00952 -0.10648,0.00952c-0.29043,0 -0.5475,-0.20771 -0.59929,-0.5034zm-12.93994,
          -6.81593c-0.9026,-1.07154 -1.0579,-2.5652 -0.27527,-3.44609c0.94555,-1.06422 2.70619,-0.83618 3.76081,
          0.41603c1.0547,-0.88028 2.81526,-0.4874 3.76081,0.91029c0.78263,1.15685 0.62725,2.59574 -0.27527,
          3.34897l-2.47547,2.06607c-0.5574,0.46524 -1.46274,0.30559 -2.02014,-0.35624l-2.47547,-2.93903z"/>
   </g>
         <g stroke="null" id="Layer_1"/>
  </g>
     <text xml:space="preserve" text-anchor="start" font-family="sans-serif" font-size="14" font-weight="bold"
           id="svg_2" y="11.63548" x="39.39702" stroke-width="0" stroke="#000" fill="#090e34">Помощник</text>
     <text xml:space="preserve" text-anchor="start" font-family="sans-serif" font-size="14" font-weight="bold"
           id="svg_3" y="23.70779" x="39.85397" stroke-width="0" stroke="#000" fill="#090e34">читателя</text>
 </g>
</svg>